<svg width="22" height="16" viewBox="0 0 22 16" fill="none" xmlns="http://www.w3.org/2000/svg">
<path d="M0 0.5C0 0.223858 0.223858 0 0.5 0H21.5C21.7761 0 22 0.223858 22 0.5V1.5C22 1.77614 21.7761 2 21.5 2H0.5C0.223857 2 0 1.77614 0 1.5V0.5Z" fill="#001254"/>
<path d="M0 7.5C0 7.22386 0.223858 7 0.5 7H21.5C21.7761 7 22 7.22386 22 7.5V8.5C22 8.77614 21.7761 9 21.5 9H0.5C0.223857 9 0 8.77614 0 8.5V7.5Z" fill="#001254"/>
<path d="M0.5 14C0.223858 14 0 14.2239 0 14.5V15.5C0 15.7761 0.223857 16 0.5 16H21.5C21.7761 16 22 15.7761 22 15.5V14.5C22 14.2239 21.7761 14 21.5 14H0.5Z" fill="#001254"/>
</svg>
