<svg width="20" height="25" viewBox="0 0 20 25" fill="none" xmlns="http://www.w3.org/2000/svg">
<path d="M11.0379 25V22.2294C11.7204 22.4114 12.5807 22.5718 13.4953 22.5718C14.3653 22.5718 15.2842 22.4267 16.1442 22.017C19.0324 20.6415 19.9365 16.9139 19.9735 16.7559C20.0829 16.2895 19.8459 15.8114 19.4042 15.6075C19.2546 15.5385 15.7061 13.9313 12.8177 15.307C12.111 15.6436 11.5233 16.1211 11.0379 16.6526V12.5993C11.5588 12.7135 12.181 12.8049 12.8409 12.8049C13.6627 12.8049 14.542 12.6632 15.3535 12.2477C17.851 10.9693 18.5437 7.69365 18.572 7.55482C18.6676 7.08557 18.4165 6.61442 17.969 6.42316C17.8366 6.3666 14.698 5.0523 12.2006 6.33079C11.7585 6.55711 11.3732 6.84616 11.0379 7.16919V4.79567C11.0716 3.74499 10.9074 2.20411 9.85043 1.16808C8.20949 -0.44029 5.32562 0.0596159 5.00228 0.121875C4.58857 0.201565 4.26522 0.518491 4.18392 0.923991C4.1204 1.24098 3.61044 4.06768 5.25131 5.67598C6.22895 6.63415 7.6475 6.84399 8.7032 6.84399C8.79225 6.84399 8.87874 6.8425 8.96212 6.83979V12.676C8.47665 12.1446 7.88906 11.667 7.18231 11.3304C4.29428 9.95493 0.745455 11.5619 0.595788 11.6309C0.154121 11.8348 -0.0829427 12.3128 0.0265225 12.7793C0.0635414 12.9373 0.967634 16.6649 3.8558 18.0404C4.71609 18.4501 5.6345 18.5952 6.50469 18.5952C7.41923 18.5952 8.27952 18.4348 8.96212 18.2528V24.9999L11.0379 25ZM13.7249 17.1371C15.0357 16.5128 16.6901 16.8415 17.6734 17.1415C17.3062 18.0853 16.5474 19.563 15.2369 20.1871C13.9274 20.8109 12.2743 20.4832 11.2909 20.1833C11.6607 19.2388 12.4229 17.7572 13.7249 17.1371ZM13.1617 8.13435C14.159 7.62379 15.4376 7.80087 16.2721 8.012C15.9719 8.80462 15.3897 9.93383 14.3926 10.4443C13.3953 10.9549 12.1166 10.7778 11.2821 10.5666C11.5822 9.77405 12.1644 8.64484 13.1617 8.13435ZM4.76301 16.2106C3.45233 15.5864 2.69347 14.1082 2.32647 13.1651C3.31034 12.8648 4.96464 12.5364 6.27504 13.1605C7.58571 13.7847 8.34457 15.2628 8.7115 16.2059C7.72763 16.5063 6.07355 16.8348 4.76301 16.2106ZM8.95666 4.80293C8.22555 4.83168 7.23642 4.74426 6.71906 4.23724C6.20723 3.7355 6.11748 2.76329 6.14495 2.04412C6.87979 2.01719 7.87093 2.10516 8.38262 2.60669C8.89521 3.10917 8.98447 4.08349 8.95666 4.80293Z" fill="#FEFEFE"/>
</svg>
