<svg width="24" height="24" viewBox="0 0 24 24" fill="none" xmlns="http://www.w3.org/2000/svg">
<g opacity="0.5">
<path d="M20.3973 17.933C18.5357 20.558 15.4687 22.2857 12 22.2857C8.53125 22.2857 5.46429 20.558 3.60268 17.933C3.95089 15.4286 4.96875 13.2054 7.24554 12.8973C8.42411 14.183 10.125 15 12 15C13.875 15 15.5759 14.183 16.7545 12.8973C19.0312 13.2054 20.0491 15.4286 20.3973 17.933ZM17.1429 8.57143C17.1429 11.4107 14.8393 13.7143 12 13.7143C9.16071 13.7143 6.85714 11.4107 6.85714 8.57143C6.85714 5.73214 9.16071 3.42857 12 3.42857C14.8393 3.42857 17.1429 5.73214 17.1429 8.57143ZM24 12C24 5.37054 18.6295 0 12 0C5.37054 0 0 5.37054 0 12C0 18.6161 5.37054 24 12 24C18.6429 24 24 18.6027 24 12Z" fill="#FEFEFE"/>
</g>
</svg>
